<svg viewBox="0 0 320 200" xmlns="http://www.w3.org/2000/svg">
          <rect width="320" height="200" fill="#f3e7cd"/>
          <rect x="0" y="160" width="320" height="40" fill="#e3d2ac"/>
          <line x1="0" y1="160" x2="320" y2="160" stroke="#2a1a14" stroke-width="2"/>
          <!-- husband holding bowl up -->
          <circle cx="96" cy="58" r="16" fill="#e0b487" stroke="#2a1a14" stroke-width="2.4"/>
          <path d="M80 56 q16 -18 32 0" fill="#2a1a14"/>
          <path d="M82 160 q14 -86 28 -86 q14 0 14 86" fill="#3a5a8a" stroke="#2a1a14" stroke-width="2.4"/>
          <path d="M110 96 q24 -6 30 -22" fill="none" stroke="#2a1a14" stroke-width="2.4" stroke-linecap="round"/>
          <!-- the revealed bowl -->
          <ellipse cx="150" cy="66" rx="22" ry="8" fill="#8a7860" stroke="#2a1a14" stroke-width="2.4"/>
          <path d="M128 66 a22 12 0 0 0 44 0" fill="#3a2c1a" stroke="#2a1a14" stroke-width="2.4"/>
          <circle cx="142" cy="64" r="3" fill="#5a7d4e"/><circle cx="156" cy="63" r="3" fill="#5a7d4e"/><circle cx="150" cy="68" r="3" fill="#e9a13c"/>
          <!-- wife flustered, hands up -->
          <circle cx="232" cy="66" r="17" fill="#f0c9a0" stroke="#2a1a14" stroke-width="2.4"/>
          <path d="M215 64 q17 -20 34 0" fill="#2a1a14"/>
          <path d="M216 160 q16 -68 30 -68 q16 0 16 68" fill="#6e1423" stroke="#2a1a14" stroke-width="2.4"/>
          <path d="M214 96 l-10 -20 M250 96 l10 -20" stroke="#2a1a14" stroke-width="2.4" stroke-linecap="round"/>
        </svg>